<?xml version="1.0" encoding="UTF-8"?>
<svg id="Layer_1" data-name="Layer 1" xmlns="http://www.w3.org/2000/svg" viewBox="0 0 297.07 108.67">
  <rect x="169.81" y="100.12" width="45.74" height="8.55"/>
  <g>
    <path d="m58.06,18.81c0,1.59-.27,3.07-.8,4.42s-1.32,2.52-2.37,3.5-2.35,1.75-3.91,2.3-3.38.82-5.44.82h-2.93v9.84h-5.81V9.06h8.98c1.98,0,3.74.21,5.26.64s2.8,1.06,3.84,1.89,1.83,1.85,2.37,3.06.81,2.6.81,4.16Zm-6.05.4c0-.81-.13-1.55-.39-2.21s-.65-1.23-1.17-1.7-1.18-.83-1.98-1.08-1.74-.38-2.84-.38h-3.02v11.23h3.21c1,0,1.88-.14,2.65-.41s1.41-.67,1.93-1.18.92-1.13,1.2-1.85.41-1.52.41-2.41Z"/>
    <path d="m78.21,39.7l-.14-3.12c-.5.53-1.02,1.02-1.57,1.46s-1.15.83-1.8,1.16-1.37.58-2.14.76-1.62.27-2.54.27c-1.22,0-2.29-.18-3.21-.54s-1.7-.86-2.32-1.5-1.1-1.41-1.42-2.32-.48-1.91-.48-3,.24-2.16.71-3.12,1.2-1.77,2.18-2.46,2.2-1.23,3.66-1.62,3.18-.59,5.14-.59h3.12v-1.43c0-.61-.09-1.16-.26-1.65s-.45-.91-.83-1.25-.88-.61-1.49-.8-1.36-.28-2.25-.28c-1.41,0-2.79.16-4.16.48s-2.69.77-3.97,1.35v-4.57c1.14-.45,2.46-.83,3.95-1.12s3.04-.45,4.65-.45c1.77,0,3.28.17,4.55.5s2.31.84,3.13,1.51,1.43,1.51,1.82,2.52.59,2.18.59,3.53v16.27h-4.9Zm-.82-10.52h-3.49c-.97,0-1.79.09-2.46.28s-1.22.45-1.64.77-.73.71-.93,1.14-.29.89-.29,1.37c0,.97.31,1.71.94,2.21s1.48.76,2.55.76c.8,0,1.62-.29,2.48-.87s1.8-1.41,2.84-2.48v-3.19Z"/>
    <path d="m105,25.14c.03-.89-.01-1.65-.13-2.27s-.3-1.14-.56-1.55-.57-.7-.95-.89-.8-.28-1.29-.28c-.84,0-1.71.35-2.61,1.04s-1.89,1.84-2.96,3.43v15.07h-5.86V15.88h5.18l.21,3.47c.39-.61.83-1.16,1.32-1.64s1.04-.9,1.64-1.25,1.27-.62,2-.81,1.54-.28,2.41-.28c1.2,0,2.27.21,3.2.62s1.71,1.03,2.34,1.84,1.1,1.83,1.41,3.06.43,2.64.39,4.25h-5.74Z"/>
    <path d="m131.04,39.7l-.14-3.52c-.5.61-1.02,1.16-1.55,1.66s-1.1.93-1.71,1.28-1.26.62-1.96.82-1.46.29-2.31.29c-1.41,0-2.66-.28-3.75-.84s-2.01-1.36-2.75-2.4-1.31-2.3-1.7-3.79-.59-3.14-.59-4.97c0-2.19.31-4.08.93-5.68s1.47-2.93,2.57-3.98,2.39-1.84,3.89-2.34,3.13-.76,4.9-.76c.59,0,1.19.04,1.79.12s1.14.18,1.61.3V6.58h5.72v33.12h-4.95Zm-10.45-11.72c0,1.31.09,2.43.27,3.36s.45,1.69.8,2.29.79,1.03,1.3,1.3,1.1.41,1.76.41c.97,0,1.89-.39,2.77-1.17s1.8-1.85,2.79-3.21v-10.41c-.45-.17-1.01-.31-1.68-.42s-1.33-.16-2-.16c-.92,0-1.75.19-2.48.56s-1.36.91-1.89,1.59-.93,1.53-1.21,2.52-.42,2.11-.42,3.34Z"/>
    <path d="m148.13,15.88v15.52c0,1.3.24,2.28.73,2.94s1.22,1,2.2,1,1.87-.39,2.75-1.18,1.82-1.86,2.8-3.2v-15.07h5.72v23.81h-4.95l-.14-3.52c-.5.61-1.01,1.16-1.52,1.66s-1.07.93-1.68,1.28-1.26.62-1.97.82-1.5.29-2.36.29c-1.22,0-2.29-.2-3.2-.6s-1.68-.96-2.29-1.7-1.07-1.61-1.37-2.64-.46-2.17-.46-3.43v-15.98h5.72Z"/>
    <path d="m190.27,27.37c0,2.19-.31,4.08-.93,5.67s-1.48,2.92-2.58,3.97-2.4,1.84-3.9,2.34-3.13.76-4.9.76-3.35-.13-4.84-.39-2.92-.61-4.28-1.04V6.58h5.72v7.78l-.23,4.69c.86-1.11,1.86-2,3.01-2.67s2.53-1.01,4.14-1.01c1.41,0,2.66.28,3.75.84s2.01,1.36,2.75,2.4,1.31,2.3,1.7,3.77.59,3.14.59,4.98Zm-6,.23c0-1.31-.09-2.43-.28-3.35s-.46-1.68-.81-2.27-.78-1.03-1.29-1.3-1.09-.41-1.75-.41c-.97,0-1.89.39-2.78,1.17s-1.82,1.84-2.8,3.19v10.41c.45.17,1.01.31,1.68.42s1.34.16,2.03.16c.91,0,1.73-.19,2.47-.56s1.38-.91,1.9-1.59.93-1.53,1.21-2.52.42-2.11.42-3.34Z"/>
    <path d="m202.92,20.34h-6.73v-4.45h12.59v19.36h6.87v4.45h-20.27v-4.45h7.55v-14.91Zm6.33-10.97c0,.52-.09,1-.28,1.45s-.45.85-.79,1.18-.73.6-1.18.8-.95.29-1.48.29-1.03-.1-1.49-.29-.86-.46-1.2-.8-.6-.73-.79-1.18-.28-.94-.28-1.45.09-1,.28-1.45.45-.85.79-1.2.73-.61,1.2-.81.96-.29,1.49-.29,1.02.1,1.48.29.85.46,1.18.81.6.74.79,1.2.28.94.28,1.45Z"/>
    <path d="m240.89,38.78c-1.12.45-2.29.79-3.49,1.01s-2.46.33-3.77.33c-1.89,0-3.59-.26-5.09-.77s-2.77-1.28-3.82-2.3-1.85-2.27-2.4-3.77-.83-3.23-.83-5.2.3-3.63.9-5.18,1.45-2.87,2.54-3.96,2.41-1.94,3.95-2.53,3.25-.89,5.14-.89c1.55,0,2.85.08,3.9.25s2,.37,2.85.62v5.55c-.97-.48-2.02-.86-3.15-1.12s-2.21-.4-3.22-.4-2.02.18-2.86.54-1.55.86-2.13,1.5-1.02,1.42-1.32,2.33-.46,1.92-.46,3.01.16,2.16.49,3.07.79,1.68,1.39,2.31,1.32,1.12,2.17,1.45,1.78.5,2.81.5c.5,0,1.03-.04,1.58-.11s1.11-.17,1.66-.3,1.1-.29,1.64-.46,1.04-.36,1.51-.56v5.09Z"/>
    <path d="m262.76,39.7l-8.79-11.91v11.91h-5.72V6.58h5.72v19.38l8.32-10.08h7.15l-9.66,10.85,10.45,12.96h-7.48Z"/>
    <path d="m288.73,37.09c-.83,2.06-1.69,3.87-2.59,5.43s-1.89,2.85-2.96,3.89-2.28,1.82-3.6,2.34-2.8.79-4.44.79c-.39,0-.82-.02-1.28-.06s-.93-.1-1.42-.18v-4.85c.19.03.4.07.64.11s.5.07.76.09.54.04.81.06.53.02.76.02c.66,0,1.27-.12,1.83-.38s1.08-.6,1.56-1.04.91-.98,1.3-1.59.73-1.29,1.03-2.03l-9.45-23.81h6.38l4.95,13.5,1.48,4.36,1.45-4.17,4.99-13.69h6.14l-8.34,21.21Zm-1.55-24.38h-5.72l6.14-6.14h7.73l-8.16,6.14Z"/>
  </g>
  <g>
    <path d="m71.44,87.05c-.67.19-1.22.45-1.64.77s-.73.71-.93,1.14-.29.89-.29,1.37c0,.97.31,1.71.94,2.21s1.48.76,2.55.76c.8,0,1.62-.29,2.48-.87s1.8-1.41,2.84-2.48v-3.19h-3.49c-.97,0-1.79.09-2.46.28Z"/>
    <path d="m156.01,78.57c-.43-.45-.93-.79-1.5-1.01s-1.18-.33-1.84-.33c-1.44,0-2.62.48-3.54,1.44s-1.47,2.32-1.64,4.07h9.89c.02-.94-.1-1.75-.35-2.45s-.59-1.27-1.02-1.72Z"/>
    <path d="m33.85,52.87v55.8h158.7v-55.8H33.85Zm22.97,44.42h-5.72v-15.52c0-2.61-.97-3.91-2.91-3.91-.97,0-1.89.39-2.78,1.17s-1.82,1.84-2.8,3.19v15.07h-5.72v-33.12h5.72v8.16l-.28,4.31c.48-.58.98-1.1,1.48-1.56s1.04-.85,1.62-1.16,1.2-.55,1.88-.71,1.41-.25,2.23-.25c1.22,0,2.28.2,3.19.6s1.66.96,2.27,1.69,1.07,1.6,1.37,2.62.46,2.17.46,3.43v15.98Zm26.3,0h-4.9l-.14-3.12c-.5.53-1.02,1.02-1.57,1.46s-1.15.83-1.8,1.16-1.37.58-2.14.76-1.62.27-2.54.27c-1.22,0-2.29-.18-3.21-.54s-1.7-.86-2.32-1.5-1.1-1.41-1.42-2.32-.48-1.91-.48-3,.24-2.16.71-3.12,1.2-1.77,2.18-2.46,2.2-1.23,3.66-1.62,3.18-.59,5.14-.59h3.12v-1.43c0-.61-.09-1.16-.26-1.65s-.45-.91-.83-1.25-.88-.61-1.49-.8-1.36-.28-2.25-.28c-1.41,0-2.79.16-4.16.48s-2.69.77-3.97,1.35v-4.57c1.14-.45,2.46-.83,3.95-1.12s3.04-.45,4.65-.45c1.77,0,3.28.17,4.55.5s2.31.84,3.13,1.51,1.43,1.51,1.82,2.52.59,2.18.59,3.53v16.27Zm25.83-.91c-1.12.45-2.29.79-3.49,1.01s-2.46.33-3.77.33c-1.89,0-3.59-.26-5.09-.77s-2.77-1.28-3.82-2.3-1.85-2.27-2.4-3.77-.83-3.23-.83-5.2.3-3.63.9-5.18,1.45-2.87,2.54-3.96,2.41-1.94,3.95-2.53,3.25-.89,5.14-.89c1.55,0,2.85.08,3.9.25s2,.37,2.85.62v5.55c-.97-.48-2.02-.86-3.15-1.12s-2.21-.4-3.22-.4-2.02.18-2.86.54-1.55.86-2.13,1.5-1.02,1.42-1.32,2.33-.46,1.92-.46,3.01.16,2.16.49,3.07.79,1.68,1.39,2.31,1.32,1.12,2.17,1.45,1.78.5,2.81.5c.5,0,1.03-.04,1.58-.11s1.11-.17,1.66-.3,1.1-.29,1.64-.46,1.04-.36,1.51-.56v5.09Zm21.87.91l-8.79-11.91v11.91h-5.72v-33.12h5.72v19.38l8.32-10.08h7.15l-9.66,10.85,10.45,12.96h-7.48Zm32.36-12.21c-.02.62-.06,1.21-.11,1.76h-15.66c0,1.05.16,1.97.48,2.77s.77,1.46,1.36,2,1.29.95,2.11,1.23,1.73.42,2.73.42c1.16,0,2.39-.09,3.71-.27s2.69-.47,4.11-.88v4.55c-.61.17-1.27.33-1.99.47s-1.45.27-2.2.38-1.51.19-2.27.25-1.51.08-2.23.08c-1.81,0-3.44-.26-4.88-.77s-2.66-1.28-3.66-2.29-1.77-2.25-2.3-3.74-.8-3.2-.8-5.16.27-3.7.8-5.29,1.28-2.95,2.25-4.08,2.14-2.01,3.53-2.62,2.93-.93,4.63-.93,3.18.26,4.48.79,2.38,1.25,3.26,2.19,1.54,2.05,1.99,3.35.68,2.72.68,4.27c0,.39-.01.9-.04,1.52Zm26.75-2.34h-5.74c.03-.89-.01-1.65-.13-2.27s-.3-1.14-.56-1.55-.57-.7-.95-.89-.8-.28-1.29-.28c-.84,0-1.71.35-2.61,1.04s-1.89,1.84-2.96,3.43v15.07h-5.86v-23.81h5.18l.21,3.47c.39-.61.83-1.16,1.32-1.64s1.04-.9,1.64-1.25,1.27-.62,2-.81,1.54-.28,2.41-.28c1.2,0,2.27.21,3.2.62s1.71,1.03,2.34,1.84,1.1,1.83,1.41,3.06.43,2.64.39,4.25Z"/>
  </g>
  <path d="m8.2,13.25l15.8,13.29-15.8,13.31-3.63-3.7,11.6-9.56-11.6-9.63,3.63-3.7Z"/>
</svg>