<?xml version="1.0" encoding="UTF-8" standalone="no"?>
<!-- Created with Inkscape (http://www.inkscape.org/) -->

<svg
   xmlns:dc="http://purl.org/dc/elements/1.1/"
   xmlns:cc="http://creativecommons.org/ns#"
   xmlns:rdf="http://www.w3.org/1999/02/22-rdf-syntax-ns#"
   xmlns:svg="http://www.w3.org/2000/svg"
   xmlns="http://www.w3.org/2000/svg"
   xmlns:sodipodi="http://sodipodi.sourceforge.net/DTD/sodipodi-0.dtd"
   xmlns:inkscape="http://www.inkscape.org/namespaces/inkscape"
   version="1.1"
   id="svg29"
   xml:space="preserve"
   width="510.23569"
   height="1122.5195"
   viewBox="0 0 510.23569 1122.5195"
   sodipodi:docname="DOMjudgelogo.svg"
   inkscape:version="0.92.1 unknown"
   inkscape:export-filename="/home/parallels/domjudge/doc/logos/DOMjudgelogo.png"
   inkscape:export-xdpi="96"
   inkscape:export-ydpi="96"><metadata
     id="metadata35"><rdf:RDF><cc:Work
         rdf:about=""><dc:format>image/svg+xml</dc:format><dc:type
           rdf:resource="http://purl.org/dc/dcmitype/StillImage" /><dc:title></dc:title></cc:Work></rdf:RDF></metadata><defs
     id="defs33" /><sodipodi:namedview
     pagecolor="#ffffff"
     bordercolor="#666666"
     borderopacity="1"
     objecttolerance="10"
     gridtolerance="10"
     guidetolerance="10"
     inkscape:pageopacity="0"
     inkscape:pageshadow="2"
     inkscape:window-width="1375"
     inkscape:window-height="876"
     id="namedview31"
     showgrid="false"
     inkscape:pagecheckerboard="true"
     showborder="false"
     inkscape:zoom="1.1575153"
     inkscape:cx="209.76207"
     inkscape:cy="561.25977"
     inkscape:window-x="65"
     inkscape:window-y="24"
     inkscape:window-maximized="1"
     inkscape:current-layer="g37" /><g
     id="g37"
     inkscape:groupmode="layer"
     inkscape:label="DOMjudgelogo"
     transform="matrix(1.3333333,0,0,-1.3333333,-142.66667,1122.5195)"><text
       transform="matrix(-0.00528445,0.99706308,0.99998604,0.00519989,463.70996,56.28613)"
       style="font-variant:normal;font-weight:bold;font-size:201.63111877px;font-family:Verdana;-inkscape-font-specification:Verdana-Bold;writing-mode:lr-tb;fill:#c1c4cb;fill-opacity:1;fill-rule:nonzero;stroke:none"
       id="text41"><tspan
         x="0 167.35382 338.74026"
         y="0"
         sodipodi:role="line"
         id="tspan39">DOM</tspan></text>
<text
       transform="matrix(-0.00528445,0.99706308,0.99998604,0.00519989,457.20703,62.77148)"
       style="font-variant:normal;font-weight:bold;font-size:201.63111877px;font-family:Verdana;-inkscape-font-specification:Verdana-Bold;writing-mode:lr-tb;fill:#231f20;fill-opacity:1;fill-rule:nonzero;stroke:none"
       id="text45"><tspan
         x="0 167.35382 338.74026"
         y="0"
         sodipodi:role="line"
         id="tspan43">DOM</tspan></text>
<text
       transform="matrix(-0.00528428,0.99706295,0.99998604,0.00519996,364.29102,585.38135)"
       style="font-style:italic;font-variant:normal;font-weight:bold;font-size:71.40048981px;font-family:Verdana;-inkscape-font-specification:Verdana-BoldItalic;writing-mode:lr-tb;fill:#c1c4cb;fill-opacity:1;fill-rule:nonzero;stroke:none"
       id="text49"><tspan
         x="0 28.774397 79.611542 129.52048 179.42943"
         y="0"
         sodipodi:role="line"
         id="tspan47">judge</tspan></text>
<text
       transform="matrix(-0.00528428,0.99706295,0.99998604,0.00519996,361.98633,587.67822)"
       style="font-style:italic;font-variant:normal;font-weight:bold;font-size:71.40048981px;font-family:Verdana;-inkscape-font-specification:Verdana-BoldItalic;writing-mode:lr-tb;fill:#676e72;fill-opacity:1;fill-rule:nonzero;stroke:none"
       id="text53"><tspan
         x="0 28.774397 79.611542 129.52048 179.42943"
         y="0"
         sodipodi:role="line"
         id="tspan51">judge</tspan></text>
<path
       d="M 212.91504,836.43604 187.46143,771.91748 H 168.37061 V 587.12256 H 153.25732 V 383.20996 H 136.5542 V 83.7168 h 89.8833"
       style="fill:none;stroke:#231f20;stroke-width:1.65658998;stroke-linecap:butt;stroke-linejoin:round;stroke-miterlimit:10;stroke-dasharray:none;stroke-opacity:1"
       id="path55"
       inkscape:connector-curvature="0" /><path
       d="m 212.91504,836.43604 25.45459,-64.51856 h 19.08984 V 587.12256 h 15.90821 v -203.9126 h 15.9082 V 83.7168 h -89.88233"
       style="fill:none;stroke:#231f20;stroke-width:1.65658998;stroke-linecap:butt;stroke-linejoin:round;stroke-miterlimit:10;stroke-dasharray:none;stroke-opacity:1"
       id="path57"
       inkscape:connector-curvature="0" /><path
       d="M 212.91504,836.43604 187.46143,771.91748 H 168.37061 V 587.12256 H 153.25732 V 383.20996 H 136.5542 V 83.7168 h 89.8833"
       style="fill:none;stroke:#231f20;stroke-width:2;stroke-linecap:butt;stroke-linejoin:round;stroke-miterlimit:10;stroke-dasharray:none;stroke-opacity:1"
       id="path59"
       inkscape:connector-curvature="0" /><path
       d="m 212.91504,836.43604 25.45459,-64.51856 h 19.08984 V 587.12256 h 15.90821 v -203.9126 h 15.9082 V 83.7168 h -89.88233"
       style="fill:none;stroke:#231f20;stroke-width:2;stroke-linecap:butt;stroke-linejoin:round;stroke-miterlimit:10;stroke-dasharray:none;stroke-opacity:1"
       id="path61"
       inkscape:connector-curvature="0" /><text
       transform="matrix(0.99862206,0,0,-1,196.21094,772.71338)"
       style="font-variant:normal;font-weight:bold;font-size:29.47159004px;font-family:Courier;-inkscape-font-specification:CourierNewPS-BoldMT;writing-mode:lr-tb;fill:#c1c4cb;fill-opacity:1;fill-rule:nonzero;stroke:none"
       id="text65"><tspan
         x="0"
         y="0"
         id="tspan63">/</tspan></text>
<text
       transform="matrix(0.99862206,0,0,-1,195.41504,773.50928)"
       style="font-variant:normal;font-weight:bold;font-size:29.47159004px;font-family:Courier;-inkscape-font-specification:CourierNewPS-BoldMT;writing-mode:lr-tb;fill:#231f20;fill-opacity:1;fill-rule:nonzero;stroke:none"
       id="text69"><tspan
         x="0"
         y="0"
         id="tspan67">/</tspan></text>
<text
       transform="matrix(0.99862206,0,0,-1,213.71094,772.71338)"
       style="font-variant:normal;font-weight:bold;font-size:29.47159004px;font-family:Courier;-inkscape-font-specification:CourierNewPS-BoldMT;writing-mode:lr-tb;fill:#c1c4cb;fill-opacity:1;fill-rule:nonzero;stroke:none"
       id="text73"><tspan
         x="0"
         y="0"
         id="tspan71">\</tspan></text>
<text
       transform="matrix(0.99862206,0,0,-1,212.91504,773.50928)"
       style="font-variant:normal;font-weight:bold;font-size:29.47159004px;font-family:Courier;-inkscape-font-specification:CourierNewPS-BoldMT;writing-mode:lr-tb;fill:#231f20;fill-opacity:1;fill-rule:nonzero;stroke:none"
       id="text77"><tspan
         x="0"
         y="0"
         id="tspan75">\</tspan></text>
<path
       d="m 216.26563,587.27588 v 51.16846 c 0,30.1582 0.72656,59.14355 2.1875,86.96533 1.45312,27.81201 3.54687,41.72314 6.27343,41.72314 1.5625,0 2.88282,-4.10156 3.96875,-12.28418 1.07813,-8.18261 2.10938,-23.38525 3.09375,-45.58789 0.98438,-22.20263 1.47657,-45.81445 1.47657,-70.8164 v -51.16846 m -4,0.0195 v 51.12842 c 0,25.28857 -0.57813,47.40234 -1.73438,66.34131 -0.65625,10.45068 -1.58594,15.67578 -2.77344,15.67578 -1.15625,0 -2.10156,-5.75781 -2.83593,-17.26319 -1.10938,-17.43066 -1.65625,-39.01171 -1.65625,-64.7539 v -51.12842"
       style="fill:#231f20;fill-opacity:1;fill-rule:nonzero;stroke:none"
       id="path79"
       inkscape:connector-curvature="0" /><path
       d="m 246.91309,587.46582 v 136.56641 l -3.44532,-7.69141 c -0.55468,-1.2832 -0.96875,-1.92139 -1.24218,-1.92139 -0.5,0 -0.92188,1.65088 -1.28125,4.96582 -0.35938,3.3086 -0.53125,7.36621 -0.53125,12.17237 0,4.37695 0.13281,7.81689 0.39843,10.32763 0.26563,2.51075 0.82813,4.72315 1.67969,6.65137 l 8.42188,18.26221 V 587.46582"
       style="fill:#231f20;fill-opacity:1;fill-rule:nonzero;stroke:none"
       id="path81"
       inkscape:connector-curvature="0" /><path
       d="m 189.26563,586.81006 v 51.32666 c 0,30.25146 0.72656,59.32666 2.1875,87.23486 1.45312,27.89795 3.54687,41.85205 6.27343,41.85205 1.5625,0 2.88282,-4.11425 3.96875,-12.32226 1.07813,-8.20801 2.10938,-23.45752 3.09375,-45.72901 0.98438,-22.27099 1.47657,-45.95605 1.47657,-71.03564 v -51.32666 m -4,0.0195 v 51.28662 c 0,25.36719 -0.57813,47.54883 -1.73438,66.54688 -0.65625,10.48242 -1.58594,15.72412 -2.77344,15.72412 -1.15625,0 -2.10156,-5.77588 -2.83593,-17.3169 -1.10938,-17.48437 -1.65625,-39.13183 -1.65625,-64.9541 v -51.28662"
       style="fill:#231f20;fill-opacity:1;fill-rule:nonzero;stroke:none"
       id="path83"
       inkscape:connector-curvature="0" /><path
       d="m 176.91309,587.46582 v 136.56641 l -3.44532,-7.69141 c -0.55468,-1.2832 -0.96875,-1.92139 -1.24218,-1.92139 -0.5,0 -0.92188,1.65088 -1.28125,4.96582 -0.35938,3.3086 -0.53125,7.36621 -0.53125,12.17237 0,4.37695 0.13281,7.81689 0.39843,10.32763 0.26563,2.51075 0.82813,4.72315 1.67969,6.65137 l 8.42188,18.26221 V 587.46582"
       style="fill:#231f20;fill-opacity:1;fill-rule:nonzero;stroke:none"
       id="path85"
       inkscape:connector-curvature="0" /><path
       d="M 259.06738,383.58789 V 529.7998 l -3.44531,-8.23437 c -0.55469,-1.37402 -0.96875,-2.05713 -1.24219,-2.05713 -0.5,0 -0.92187,1.76758 -1.28125,5.31641 -0.35937,3.54248 -0.53125,7.88672 -0.53125,13.03222 0,4.68604 0.13282,8.36914 0.39844,11.05713 0.26563,2.68799 0.82813,5.05664 1.67969,7.1211 l 8.42187,19.55224 V 383.58789"
       style="fill:#231f20;fill-opacity:1;fill-rule:nonzero;stroke:none"
       id="path87"
       inkscape:connector-curvature="0" /><path
       d="m 229.93213,383.27539 v 54.77197 c 0,32.28223 0.72656,63.30909 2.1875,93.09034 1.45312,29.7705 3.54687,44.66162 6.27344,44.66162 1.5625,0 2.88281,-4.39063 3.96875,-13.14942 1.07812,-8.75879 2.10937,-25.03222 3.09375,-48.79834 0.98437,-23.7666 1.47656,-49.04101 1.47656,-75.8042 v -54.77197 m -4,0.0205 v 54.72949 c 0,27.06982 -0.57813,50.74121 -1.73438,71.01367 -0.65625,11.18701 -1.58593,16.77979 -2.77343,16.77979 -1.15625,0 -2.10157,-6.16309 -2.83594,-18.47901 -1.10938,-18.6582 -1.65625,-41.75927 -1.65625,-69.31445 v -54.72949"
       style="fill:#231f20;fill-opacity:1;fill-rule:nonzero;stroke:none"
       id="path89"
       inkscape:connector-curvature="0" /><path
       d="m 203.93213,383.27539 v 54.77197 c 0,32.28223 0.72656,63.30909 2.1875,93.09034 1.45312,29.7705 3.54687,44.66162 6.27344,44.66162 1.5625,0 2.88281,-4.39063 3.96875,-13.14942 1.07812,-8.75879 2.10937,-25.03222 3.09375,-48.79834 0.98437,-23.7666 1.47656,-49.04101 1.47656,-75.8042 v -54.77197 m -4,0.0205 v 54.72949 c 0,27.06982 -0.57813,50.74121 -1.73438,71.01367 -0.65625,11.18701 -1.58593,16.77979 -2.77343,16.77979 -1.15625,0 -2.10157,-6.16309 -2.83594,-18.47901 -1.10938,-18.6582 -1.65625,-41.75927 -1.65625,-69.31445 v -54.72949"
       style="fill:#231f20;fill-opacity:1;fill-rule:nonzero;stroke:none"
       id="path91"
       inkscape:connector-curvature="0" /><path
       d="m 176.93213,383.27539 v 54.77197 c 0,32.28223 0.72656,63.30909 2.1875,93.09034 1.45312,29.7705 3.54687,44.66162 6.27344,44.66162 1.5625,0 2.88281,-4.39063 3.96875,-13.14942 1.07812,-8.75879 2.10937,-25.03222 3.09375,-48.79834 0.98437,-23.7666 1.47656,-49.04101 1.47656,-75.8042 v -54.77197 m -4,0.0205 v 54.72949 c 0,27.06982 -0.57813,50.74121 -1.73438,71.01367 -0.65625,11.18701 -1.58593,16.77979 -2.77343,16.77979 -1.15625,0 -2.10157,-6.16309 -2.83594,-18.47901 -1.10938,-18.6582 -1.65625,-41.75927 -1.65625,-69.31445 v -54.72949"
       style="fill:#231f20;fill-opacity:1;fill-rule:nonzero;stroke:none"
       id="path93"
       inkscape:connector-curvature="0" /><path
       d="M 165.06738,383.58789 V 529.7998 l -3.44531,-8.23437 c -0.55469,-1.37402 -0.96875,-2.05713 -1.24219,-2.05713 -0.5,0 -0.92187,1.76758 -1.28125,5.31641 -0.35937,3.54248 -0.53125,7.88672 -0.53125,13.03222 0,4.68604 0.13282,8.36914 0.39844,11.05713 0.26563,2.68799 0.82813,5.05664 1.67969,7.1211 l 8.42187,19.55224 V 383.58789"
       style="fill:#231f20;fill-opacity:1;fill-rule:nonzero;stroke:none"
       id="path95"
       inkscape:connector-curvature="0" /><path
       d="m 274.71484,83.88965 v 223.32519 l -3.44531,-12.57714 c -0.55469,-2.09961 -0.96875,-3.14356 -1.24219,-3.14356 -0.5,0 -0.92187,2.7002 -1.28125,8.12012 -0.35937,5.41211 -0.53125,12.04687 -0.53125,19.90722 0,7.15723 0.13282,12.78321 0.39844,16.8877 0.26563,4.10547 0.82813,7.72363 1.67969,10.87695 l 8.42187,29.86524 V 83.88965"
       style="fill:#231f20;fill-opacity:1;fill-rule:nonzero;stroke:none"
       id="path97"
       inkscape:connector-curvature="0" /><path
       d="m 243.59912,83.27539 v 83.79102 c 0,49.38379 0.72656,96.84961 2.1875,142.40918 1.45313,45.54296 3.54688,68.32421 6.27344,68.32421 1.5625,0 2.88281,-6.71679 3.96875,-20.11718 1.07812,-13.39844 2.10937,-38.29297 3.09375,-74.65137 0.98437,-36.3584 1.47656,-75.02344 1.47656,-115.96484 V 83.27539 m -4,0.03125 v 83.72559 c 0,41.41015 -0.57812,77.62402 -1.73437,108.63672 -0.65625,17.11328 -1.58594,25.67089 -2.77344,25.67089 -1.15625,0 -2.10156,-9.42968 -2.83594,-28.2705 -1.10937,-28.54297 -1.65625,-63.88282 -1.65625,-106.03711 V 83.30664"
       style="fill:#231f20;fill-opacity:1;fill-rule:nonzero;stroke:none"
       id="path99"
       inkscape:connector-curvature="0" /><path
       d="m 216.59912,83.27539 v 83.79102 c 0,49.38379 0.72656,96.84961 2.1875,142.40918 1.45313,45.54296 3.54688,68.32421 6.27344,68.32421 1.5625,0 2.88281,-6.71679 3.96875,-20.11718 1.07812,-13.39844 2.10937,-38.29297 3.09375,-74.65137 0.98437,-36.3584 1.47656,-75.02344 1.47656,-115.96484 V 83.27539 m -4,0.03125 v 83.72559 c 0,41.41015 -0.57812,77.62402 -1.73437,108.63672 -0.65625,17.11328 -1.58594,25.67089 -2.77344,25.67089 -1.15625,0 -2.10156,-9.42968 -2.83594,-28.2705 -1.10937,-28.54297 -1.65625,-63.88282 -1.65625,-106.03711 V 83.30664"
       style="fill:#231f20;fill-opacity:1;fill-rule:nonzero;stroke:none"
       id="path101"
       inkscape:connector-curvature="0" /><path
       d="m 190.59912,83.27539 v 83.79102 c 0,49.38379 0.72656,96.84961 2.1875,142.40918 1.45313,45.54296 3.54688,68.32421 6.27344,68.32421 1.5625,0 2.88281,-6.71679 3.96875,-20.11718 1.07812,-13.39844 2.10937,-38.29297 3.09375,-74.65137 0.98437,-36.3584 1.47656,-75.02344 1.47656,-115.96484 V 83.27539 m -4,0.03125 v 83.72559 c 0,41.41015 -0.57812,77.62402 -1.73437,108.63672 -0.65625,17.11328 -1.58594,25.67089 -2.77344,25.67089 -1.15625,0 -2.10156,-9.42968 -2.83594,-28.2705 -1.10937,-28.54297 -1.65625,-63.88282 -1.65625,-106.03711 V 83.30664"
       style="fill:#231f20;fill-opacity:1;fill-rule:nonzero;stroke:none"
       id="path103"
       inkscape:connector-curvature="0" /><path
       d="m 164.59912,83.27539 v 83.79102 c 0,49.38379 0.72656,96.84961 2.1875,142.40918 1.45313,45.54296 3.54688,68.32421 6.27344,68.32421 1.5625,0 2.88281,-6.71679 3.96875,-20.11718 1.07812,-13.39844 2.10937,-38.29297 3.09375,-74.65137 0.98437,-36.3584 1.47656,-75.02344 1.47656,-115.96484 V 83.27539 m -4,0.03125 v 83.72559 c 0,41.41015 -0.57812,77.62402 -1.73437,108.63672 -0.65625,17.11328 -1.58594,25.67089 -2.77344,25.67089 -1.15625,0 -2.10156,-9.42968 -2.83594,-28.2705 -1.10937,-28.54297 -1.65625,-63.88282 -1.65625,-106.03711 V 83.30664"
       style="fill:#231f20;fill-opacity:1;fill-rule:nonzero;stroke:none"
       id="path105"
       inkscape:connector-curvature="0" /><path
       d="m 149.71484,83.88965 v 223.32519 l -3.44531,-12.57714 c -0.55469,-2.09961 -0.96875,-3.14356 -1.24219,-3.14356 -0.5,0 -0.92187,2.7002 -1.28125,8.12012 -0.35937,5.41211 -0.53125,12.04687 -0.53125,19.90722 0,7.15723 0.13282,12.78321 0.39844,16.8877 0.26563,4.10547 0.82813,7.72363 1.67969,10.87695 l 8.42187,29.86524 V 83.88965"
       style="fill:#231f20;fill-opacity:1;fill-rule:nonzero;stroke:none"
       id="path107"
       inkscape:connector-curvature="0" /><path
       d="m 162.6665,587.22314 h 98.59131"
       style="fill:#231f20;fill-opacity:1;fill-rule:nonzero;stroke:#231f20;stroke-width:1.65998995;stroke-linecap:butt;stroke-linejoin:miter;stroke-miterlimit:4;stroke-dasharray:none;stroke-opacity:1"
       id="path109"
       inkscape:connector-curvature="0" /><path
       d="m 146.6665,383.22363 h 135"
       style="fill:#231f20;fill-opacity:1;fill-rule:nonzero;stroke:#231f20;stroke-width:2;stroke-linecap:butt;stroke-linejoin:miter;stroke-miterlimit:4;stroke-dasharray:none;stroke-opacity:1"
       id="path111"
       inkscape:connector-curvature="0" /></g></svg>